<?xml version="1.0" encoding="UTF-8" standalone="no"?>
<!-- Created with Inkscape (http://www.inkscape.org/) -->
<svg
   xmlns:dc="http://purl.org/dc/elements/1.1/"
   xmlns:cc="http://web.resource.org/cc/"
   xmlns:rdf="http://www.w3.org/1999/02/22-rdf-syntax-ns#"
   xmlns:svg="http://www.w3.org/2000/svg"
   xmlns="http://www.w3.org/2000/svg"
   xmlns:sodipodi="http://sodipodi.sourceforge.net/DTD/sodipodi-0.dtd"
   xmlns:inkscape="http://www.inkscape.org/namespaces/inkscape"
   id="svg2"
   sodipodi:version="0.32"
   inkscape:version="0.45pre1"
   width="131"
   height="151"
   version="1.0"
   sodipodi:docbase="C:\Documents and Settings\paulos\Meus documentos\Minhas imagens\wikimedia"
   sodipodi:docname="simbolo_ciencias.jpg"
   sodipodi:modified="true">
  <metadata
     id="metadata7">
    <rdf:RDF>
      <cc:Work
         rdf:about="">
        <dc:format>image/svg+xml</dc:format>
        <dc:type
           rdf:resource="http://purl.org/dc/dcmitype/StillImage" />
      </cc:Work>
    </rdf:RDF>
  </metadata>
  <defs
     id="defs5" />
  <sodipodi:namedview
     inkscape:window-height="744"
     inkscape:window-width="1280"
     inkscape:pageshadow="2"
     inkscape:pageopacity="0.0"
     guidetolerance="10.0"
     gridtolerance="10.0"
     objecttolerance="10.0"
     borderopacity="1.0"
     bordercolor="#666666"
     pagecolor="#ffffff"
     id="base"
     inkscape:zoom="2.4152486"
     inkscape:cx="106.12679"
     inkscape:cy="83.254636"
     inkscape:window-x="-4"
     inkscape:window-y="-4"
     inkscape:current-layer="svg2" />
  <path
     style="fill:#000000"
     d="M 62.201592,145.1342 C 62.201592,141.38033 62.02816,141.1195 59.951592,141.75027 C 58.714092,142.12617 56.201027,143.55843 54.367003,144.93307 C 52.149486,146.59514 50.698251,147.09825 50.034901,146.4349 C 48.772981,145.17298 50.986761,141.40455 53.449117,140.62303 C 56.02268,139.80621 55.593415,138.60653 52.228924,137.21291 C 47.729481,135.34918 44.201591,131.62311 44.201591,128.73465 C 44.201591,127.2349 45.556971,124.69325 47.469791,122.606 L 50.737991,119.03978 L 47.137251,115.25461 C 40.856321,108.65199 40.140691,100.65207 45.201591,93.616244 C 46.975041,91.15074 53.436556,89.42571 52.584886,91.645127 C 51.694362,93.965794 56.057848,94.633656 58.442821,92.541725 C 60.371927,90.849647 60.489375,90.842395 59.902542,92.451592 C 59.104014,94.641293 61.444582,94.818659 63.201592,92.701592 C 63.886281,91.876592 64.911126,91.201592 65.479024,91.201592 C 66.046923,91.201592 65.697078,92.101592 64.701592,93.201592 C 62.948022,95.139265 62.954959,95.201592 64.92416,95.201592 C 66.042058,95.201592 67.516903,94.526592 68.201592,93.701592 C 68.886281,92.876592 69.896481,92.201592 70.446481,92.201592 C 70.996481,92.201592 70.830371,92.94396 70.077347,93.851298 C 68.843838,95.337585 69.029827,95.4538 71.954903,95.024491 C 73.740582,94.762408 75.201592,94.877912 75.201592,95.281165 C 75.201592,95.684418 76.214092,95.826492 77.451592,95.596884 C 78.689092,95.367276 79.136288,95.44784 78.445361,95.775914 C 76.507054,96.696284 78.012979,98.188373 81.010609,98.317593 C 82.726179,98.391547 83.062824,98.600217 81.939349,98.893275 C 79.595476,99.504674 80.74021,101.19754 83.510609,101.2169 C 85.213223,101.2288 85.381576,101.43471 84.265894,102.14069 C 83.018297,102.93013 83.018297,103.28082 84.265894,104.81733 C 85.055528,105.78983 85.186245,106.27671 84.556377,105.89929 C 83.324651,105.16124 82.069939,107.40404 82.569082,109.45159 C 82.736678,110.13909 82.678794,110.34531 82.440451,109.90985 C 81.708628,108.5728 79.207623,111.31776 79.101912,113.57403 C 79.002309,115.69994 79.001729,115.6999 78.351912,113.52174 C 77.779291,111.60233 77.482448,111.50338 75.867417,112.69353 C 74.129335,113.97436 74.175394,114.13832 76.746559,115.82301 C 79.391272,117.55589 79.505027,117.54509 81.245542,115.39564 C 82.47154,113.8816 83.185318,113.58396 83.522908,114.44601 C 83.793343,115.13658 84.331297,114.27225 84.718361,112.52529 C 85.227859,110.22573 85.844791,109.51118 86.953405,109.93659 C 88.231027,110.42686 88.374676,109.87627 87.820548,106.6129 C 87.203422,102.97852 87.264201,102.83902 88.678996,104.64272 C 90.162164,106.53358 90.201592,106.52349 90.201592,104.25296 C 90.201592,102.97097 89.414092,101.32428 88.451592,100.59364 C 87.382841,99.782341 87.188199,99.252818 87.951592,99.233395 C 89.923079,99.183235 89.408404,97.402007 87.221905,96.708039 C 86.133078,96.362459 85.345578,95.584471 85.471905,94.979177 C 85.598233,94.373883 84.662534,93.613807 83.392575,93.290117 C 82.122616,92.966428 80.997616,92.251592 80.892575,91.701592 C 80.787534,91.151592 79.689092,90.719331 78.451592,90.741013 C 77.214092,90.762694 76.201592,90.476269 76.201592,90.104512 C 76.201592,89.051082 70.18039,88.42688 69.568536,89.416881 C 69.268786,89.901886 68.445636,89.819094 67.739313,89.232897 C 67.032989,88.646701 65.723052,88.447995 64.82834,88.791328 C 63.929753,89.136148 63.201592,88.920062 63.201592,88.308581 C 63.201592,87.699737 62.526592,87.201592 61.701592,87.201592 C 60.876592,87.201592 60.201592,87.7376 60.201592,88.392722 C 60.201592,89.047843 59.553999,88.710343 58.762496,87.642722 C 57.537956,85.990996 57.018161,85.887955 55.276065,86.951592 C 52.70186,88.523272 52.137256,88.523272 52.451592,86.951592 C 52.617498,86.122061 51.549963,85.757543 49.277951,85.867926 C 47.179711,85.969866 46.360961,85.721129 47.163051,85.225413 C 49.066261,84.049161 45.201571,82.172636 42.113261,82.773459 C 39.996221,83.185323 39.945931,83.132573 41.701591,82.341673 C 43.436691,81.560037 43.204901,81.343903 39.951591,80.709857 C 37.216001,80.176711 36.201591,79.473251 36.201591,78.109353 C 36.201591,76.962681 35.260601,76.003522 33.768161,75.628945 C 32.288521,75.257577 31.535021,74.496271 31.845721,73.686585 C 32.126771,72.9542 31.361011,71.822096 30.144051,71.170797 C 28.399361,70.237066 28.222571,69.806663 29.308131,69.135746 C 30.346631,68.493922 30.402001,68.001997 29.533501,67.133504 C 27.902741,65.502743 29.689331,60.697178 33.846181,55.533295 C 37.721951,50.718583 37.799971,50.380688 35.451591,48.580838 C 33.922301,47.408758 33.890771,47.114314 35.201591,46.24624 C 36.347501,45.487379 36.777031,45.718957 37.021141,47.227237 C 37.425541,49.725794 37.556701,49.71191 41.986781,46.701592 L 45.665861,44.201592 L 40.818601,44.201592 C 36.507351,44.201592 35.597031,44.610238 32.586461,47.897009 C 30.724781,49.929489 29.201591,52.153767 29.201591,52.839849 C 29.201591,53.525931 28.241471,55.714564 27.067981,57.703476 C 25.314041,60.676188 25.132271,61.75404 26.046541,63.760636 C 26.730271,65.261262 26.781741,66.201592 26.180151,66.201592 C 24.505871,66.201592 25.102101,68.466781 27.428071,70.942662 C 29.480481,73.127356 29.500021,73.255949 27.678071,72.587548 C 25.722151,71.870004 25.722391,71.887629 27.701591,74.282027 C 28.801591,75.612788 30.151591,77.032201 30.701591,77.436279 C 31.291301,77.86953 31.086151,78.190298 30.201591,78.218083 C 27.916321,78.289865 32.111031,81.201592 34.499711,81.201592 C 35.878561,81.201592 36.235941,81.669706 35.774711,82.871642 C 34.984661,84.930481 36.750741,86.143836 40.701591,86.256564 C 43.286761,86.330326 43.425041,86.461002 41.701591,87.201592 C 40.159541,87.864235 40.691081,88.077115 44.023021,88.131307 C 48.065501,88.197055 48.236291,88.309748 46.668921,89.877125 C 45.319561,91.226484 44.626951,91.323818 43.111061,90.377125 C 42.075781,89.730582 40.621771,89.201592 39.879921,89.201592 C 37.779541,89.201592 29.093671,80.198843 26.372701,75.201592 C 23.089141,69.171127 22.938191,60.784617 26.034921,56.435654 C 27.226591,54.762112 28.201591,52.904962 28.201591,52.308652 C 28.201591,51.15653 30.447991,48.170298 33.640151,45.078937 C 36.264361,42.537597 47.769461,42.279372 46.808581,44.783379 C 46.764096,44.899307 45.821159,46.498887 46.225992,46.263692 C 47.076588,45.769524 50.132838,42.557573 50.063571,42.908459 C 50.037814,43.038937 49.268448,44.106729 48.833064,44.910635 C 49.513436,45.075124 51.389722,45.608547 50.986058,45.557258 C 48.786721,45.277815 46.684729,46.508148 46.222825,47.087666 C 45.545931,47.936916 46.201591,48.051029 46.201591,48.314764 C 46.201591,49.387043 45.414091,50.517419 44.451591,50.826712 C 38.709551,52.671878 36.890981,53.85923 34.197701,57.521529 C 32.408941,59.953854 31.203101,62.825876 31.205331,64.648595 C 31.209431,67.999462 34.170381,73.496789 37.778831,76.853036 C 40.799761,79.66282 49.669061,83.826825 54.598851,84.74978 L 58.496109,85.479426 L 57.799813,80.230484 C 57.416849,77.343566 56.383689,73.882947 55.5039,72.540221 C 54.29948,70.702043 54.188067,69.815117 55.052939,68.950245 C 55.684698,68.318486 56.201592,65.252278 56.201592,62.136451 C 56.201592,57.882094 55.545295,56.577755 53.956339,54.557725 C 53.205264,53.602888 51.045882,52.39901 50.831037,51.928736 C 51.493477,51.371841 52.686946,50.558707 53.835723,49.705129 C 55.340052,48.587366 55.80387,48.356445 54.883555,46.898314 C 53.166989,45.426203 52.175178,43.909712 51.70001,41.668961 C 51.431726,40.035346 52.053711,38.771333 51.709463,38.214328 C 51.354861,37.640571 46.774551,37.201592 41.142571,37.201592 L 31.201591,37.201592 L 31.201591,34.201592 C 31.201591,31.764918 31.624091,31.196668 33.451591,31.175368 C 34.689091,31.160945 37.501591,30.275827 39.701591,29.208438 L 43.701591,27.267732 L 40.091231,27.819756 C 37.363791,28.236782 36.332131,27.984145 35.872621,26.786686 C 35.509311,25.839906 34.086711,25.201592 32.339971,25.201592 C 30.662991,25.201592 29.170041,24.561755 28.839971,23.701592 C 28.523381,22.876592 27.336111,22.201592 26.201591,22.201592 C 25.067071,22.201592 23.879801,21.526592 23.563221,20.701592 C 23.246641,19.876592 22.132781,19.201592 21.087991,19.201592 C 20.043201,19.201592 18.246401,18.118243 17.095121,16.794149 C 15.943841,15.470056 13.471811,14.099665 11.601731,13.748836 C 9.7316605,13.398008 8.2015905,12.747067 8.2015905,12.302302 C 8.2015905,11.857536 7.0765905,10.279742 5.7015905,8.7960923 C 4.3265905,7.3124428 3.2015905,5.1699781 3.2015905,4.0350597 C 3.2015905,2.0160746 3.2606405,2.0102588 5.9393205,3.7653981 C 8.2817505,5.3002224 10.752761,5.5383433 23.053281,5.4146031 C 39.190061,5.252271 41.552941,5.8523297 47.315741,11.57611 L 50.929901,15.165788 L 53.23115,12.163024 C 57.190757,6.9963718 61.618823,4.8911362 67.365166,5.4432871 C 71.701818,5.8599844 73.026968,6.5532829 76.911442,10.437758 L 81.422049,14.948364 L 87.333552,10.869095 C 93.086736,6.8990753 93.438638,6.7980754 100.47332,7.0978232 C 119.14641,7.8934833 121.57186,7.7398645 126.05792,5.4773871 L 130.41426,3.2803392 L 129.82158,5.4909654 C 129.49561,6.7068097 129.22275,8.5002294 129.21524,9.4763423 C 129.20773,10.452455 128.1151,11.664178 126.78716,12.169059 C 125.45922,12.67394 124.07072,14.038579 123.70159,15.201592 C 123.33246,16.364605 122.05646,17.759705 120.86602,18.301815 C 117.37321,19.892399 114.34545,21.761422 112.37974,23.540373 C 111.37014,24.454043 109.15454,25.201592 107.45618,25.201592 C 105.75782,25.201592 104.19593,25.718572 103.98531,26.350436 C 103.29166,28.431378 91.88892,29.016913 89.568056,27.090767 C 88.789918,26.44497 87.833358,26.236493 87.442367,26.627484 C 86.311631,27.758219 91.302906,30.988524 96.015082,32.175664 C 99.906822,33.156111 100.29792,33.528272 100.01508,35.981977 L 99.701592,38.701592 L 89.451592,38.347403 L 79.201592,37.993214 L 79.201592,40.942416 C 79.201592,42.660224 78.332395,44.678229 77.119855,45.775563 L 75.038117,47.65951 L 77.841302,49.894691 L 80.644486,52.129872 L 77.850869,55.04578 C 75.221018,57.790753 75.074017,58.411829 75.343224,65.640486 C 75.502942,69.929168 75.191622,73.624422 74.638068,74.010438 C 74.092948,74.390573 73.517517,77.351278 73.359334,80.589783 L 73.071728,86.477975 L 77.228426,85.813292 C 88.775275,83.966876 100.20159,72.885992 100.20159,63.534636 C 100.20159,59.280482 96.569343,53.500347 93.492213,52.857745 C 91.957371,52.537222 89.224007,51.980176 87.41807,51.619865 C 84.328666,51.003483 84.148087,50.735278 84.363577,47.083173 L 84.592608,43.201592 L 90.1471,43.21224 C 95.170954,43.221871 96.025492,43.556237 99.092037,46.71224 C 100.95678,48.631384 102.81972,50.201592 103.23191,50.201592 C 104.69486,50.201592 108.20159,59.238952 108.20159,63.009192 C 108.20159,70.640713 105.51919,76.753552 99.55182,82.720929 C 96.474758,85.797991 92.212158,89.0138 90.079377,89.86717 C 87.946595,90.72054 86.201592,91.64243 86.201592,91.915816 C 86.201592,92.189201 87.374097,93.806323 88.807158,95.50942 C 91.096538,98.230193 91.362781,99.296422 91.00116,104.29578 C 90.62935,109.43599 90.184122,110.37518 86.39189,114.01875 C 82.620009,117.64277 82.296002,118.31971 83.197888,120.69185 C 83.749925,122.14382 84.201592,125.29535 84.201592,127.69526 C 84.201592,132.48385 82.647656,134.69011 77.855804,136.70494 L 74.923116,137.93804 L 78.062354,140.73511 C 79.788935,142.2735 81.201592,144.10624 81.201592,144.80787 C 81.201592,147.32002 78.993097,147.37722 76.370332,144.93302 C 73.494931,142.25337 69.981068,140.20159 68.267333,140.20159 C 67.670899,140.20159 67.201592,142.1832 67.201592,144.70159 C 67.201592,148.83492 66.997888,149.20159 64.701592,149.20159 C 62.444689,149.20159 62.201592,148.80608 62.201592,145.1342 z M 53.201592,144.31553 C 53.201592,143.8282 54.813137,142.66474 56.782804,141.73008 C 58.75247,140.79541 60.084706,139.75137 59.743327,139.40999 C 58.887811,138.55448 52.4407,142.1361 51.791667,143.82745 C 51.501649,144.58323 51.700238,145.20159 52.232977,145.20159 C 52.765715,145.20159 53.201592,144.80286 53.201592,144.31553 z M 76.333365,141.17477 C 74.543,139.53952 72.655929,138.20159 72.139874,138.20159 C 71.623819,138.20159 71.201592,137.82888 71.201592,137.37334 C 71.201592,136.38756 62.245783,134.20159 58.207089,134.20159 C 54.352563,134.20159 52.201592,133.26785 52.201592,131.5946 C 52.201592,130.82845 51.676592,130.20159 51.034921,130.20159 C 50.393261,130.20159 50.164351,129.90549 50.526251,129.5436 C 50.888141,129.1817 50.683041,128.2817 50.070471,127.5436 C 49.185001,126.47667 49.516171,126.20159 51.686136,126.20159 C 53.686212,126.20159 54.263666,125.80574 53.847109,124.72021 C 53.472566,123.74416 53.862477,123.28652 54.990121,123.37865 C 59.960516,123.78473 60.59401,123.00539 56.701592,121.27314 L 52.701592,119.49302 L 51.52767,122.59731 C 50.475811,125.37881 50.345841,125.4549 50.277671,123.32915 C 50.212371,121.29279 49.979991,121.14061 48.637311,122.25494 C 47.652271,123.07245 47.286551,124.40396 47.649671,125.85075 C 48.093751,127.62009 47.878621,128.01489 46.713961,127.56796 C 45.882161,127.24877 45.201591,127.45361 45.201591,128.02317 C 45.201591,129.48033 48.203871,132.31822 49.135981,131.74214 C 49.561221,131.47933 50.426851,132.40057 51.059621,133.78934 C 51.692382,135.1781 52.658185,136.03743 53.205845,135.69896 C 53.753506,135.36049 54.201592,135.61119 54.201592,136.25607 C 54.201592,136.99005 55.323643,137.26391 57.201592,136.98828 C 58.851592,136.74611 60.201592,136.84627 60.201592,137.21085 C 60.201592,137.57543 61.902313,137.94036 63.980972,138.02181 C 68.122237,138.18408 75.100491,141.16992 77.172021,143.66596 C 77.895036,144.53714 78.734539,145.00198 79.037584,144.69893 C 79.340629,144.39589 78.123731,142.81001 76.333365,141.17477 z M 64.701592,140.20159 C 63.909653,138.92021 63.201592,138.92021 63.201592,140.20159 C 63.201592,140.75159 63.67815,141.20159 64.260609,141.20159 C 64.843068,141.20159 65.041511,140.75159 64.701592,140.20159 z M 77.951592,135.21524 C 78.639092,135.20773 79.201592,134.52659 79.201592,133.70159 C 79.201592,132.87659 78.526592,132.20159 77.701592,132.20159 C 76.876592,132.20159 76.201592,132.65159 76.201592,133.20159 C 76.201592,133.75159 74.739092,134.20848 72.951592,134.2169 C 70.451538,134.22868 70.047721,134.46244 71.201592,135.22991 C 72.026592,135.77864 73.601592,136.00289 74.701592,135.72825 C 75.801592,135.45361 77.264092,135.22275 77.951592,135.21524 z M 61.00909,128.95159 C 60.748684,125.35246 60.3953,124.74598 58.701592,124.99144 C 55.801976,125.41166 52.201592,127.37824 52.201592,128.54183 C 52.201592,130.63318 55.62585,133.20159 58.414077,133.20159 C 61.210364,133.20159 61.305334,133.04605 61.00909,128.95159 z M 64.389092,132.51848 C 63.667217,132.22961 62.804717,132.26513 62.472425,132.59742 C 62.140134,132.92972 62.730759,133.16606 63.784925,133.12264 C 64.949868,133.07466 65.186825,132.8377 64.389092,132.51848 z M 66.917846,125.45159 C 66.688722,123.93909 66.501256,125.17659 66.501256,128.20159 C 66.501256,131.22659 66.688722,132.46409 66.917846,130.95159 C 67.146971,129.43909 67.146971,126.96409 66.917846,125.45159 z M 75.754566,131.14305 C 77.17191,129.57691 77.366314,128.67993 76.567313,127.39305 C 75.54042,125.73913 70.363138,122.68541 69.730855,123.3607 C 69.555307,123.54819 69.126771,125.83909 68.778552,128.45159 C 68.150571,133.16299 68.168775,133.20159 71.018521,133.20159 C 72.648858,133.20159 74.697437,132.31117 75.754566,131.14305 z M 82.270492,131.95159 C 82.308387,131.26409 82.511112,129.38508 82.720993,127.77601 C 82.930873,126.16694 82.799262,124.36694 82.428523,123.77601 C 82.057785,123.18508 81.74256,122.02659 81.728023,121.20159 C 81.713486,120.37659 80.689092,119.55779 79.451592,119.38204 C 78.214092,119.20629 77.201592,118.59564 77.201592,118.02505 C 77.201592,117.45446 76.526592,117.24663 75.701592,117.56322 C 74.876592,117.8798 74.201592,117.65046 74.201592,117.05357 C 74.201592,116.45669 73.301592,116.20368 72.201592,116.49134 C 71.101592,116.779 70.201592,116.57819 70.201592,116.04511 C 70.201592,115.51203 69.414092,115.20543 68.451592,115.36377 C 67.489092,115.52212 66.08878,115.26775 65.339789,114.79852 C 64.479788,114.25973 63.656342,114.45317 63.105101,115.32347 C 62.625015,116.08144 62.221816,116.25159 62.209103,115.70159 C 62.176514,114.2917 57.342479,112.2103 55.628315,112.86808 C 54.843617,113.1692 54.201592,112.89086 54.201592,112.24956 C 54.201592,111.60826 53.74814,111.3638 53.193921,111.70633 C 51.863845,112.52836 49.423531,110.03578 49.965781,108.40904 C 50.199471,107.70796 49.879351,106.51824 49.254391,105.76521 C 48.395871,104.73075 48.433871,104.26545 49.409851,103.86166 C 50.355451,103.47044 50.165651,102.87496 48.701591,101.63944 C 46.727381,99.97341 46.731951,99.958847 49.055461,100.51016 C 51.125911,101.00143 51.351991,100.76867 50.933041,98.577103 C 50.589511,96.780046 50.830381,96.228903 51.797145,96.599886 C 52.534363,96.882783 53.376419,96.727733 53.66838,96.25533 C 54.56732,94.800815 48.009341,92.977254 46.764721,94.335645 C 45.980061,95.192032 46.173571,95.329434 47.503531,94.860225 C 48.574671,94.482325 49.057691,94.625415 48.694511,95.213046 C 48.358491,95.756746 47.210121,96.201592 46.142571,96.201592 C 45.051271,96.201592 44.201591,96.88406 44.201591,97.760609 C 44.201591,98.618068 44.651591,99.041511 45.201591,98.701592 C 46.719861,97.763249 46.396361,99.149679 44.701591,100.84445 C 42.674891,102.87115 42.806191,104.27796 44.951591,103.52303 C 46.380151,103.02034 46.471991,103.15468 45.451591,104.25441 C 44.764091,104.99536 44.201591,106.69169 44.201591,108.02403 C 44.201591,110.15839 44.397141,110.28419 45.845841,109.08188 C 47.307021,107.8692 47.411171,107.96591 46.781291,109.95048 C 45.763841,113.15619 47.055601,114.73303 48.879231,112.51143 C 50.245551,110.84694 50.320671,110.84213 49.814611,112.45159 C 49.178551,114.4745 50.018251,117.20159 51.277201,117.20159 C 51.751091,117.20159 51.897267,116.57211 51.602034,115.80274 C 51.306801,115.03337 51.545923,114.10682 52.133418,113.74372 C 52.780053,113.34408 53.201592,114.05121 53.201592,115.53558 C 53.201592,116.8842 53.876592,118.24663 54.701592,118.56322 C 55.672826,118.93591 56.20943,118.53299 56.223828,117.42021 C 56.241562,116.04952 56.649122,116.20771 58.236986,118.20159 C 59.842004,120.21701 60.097404,120.31393 59.554621,118.70159 C 58.899168,116.75457 58.945176,116.75725 61.291463,118.80282 C 65.480137,122.45465 66.493412,122.74219 65.780988,120.07682 L 65.146115,117.70159 L 66.795826,119.95159 C 67.703166,121.18909 69.120749,122.20159 69.946009,122.20159 C 71.219672,122.20159 71.243599,121.93706 70.104298,120.45159 C 69.366097,119.48909 69.985997,119.79253 71.481853,121.1259 C 73.404999,122.84015 74.220157,123.13305 74.264978,122.1259 C 74.299841,121.34253 74.754341,121.76546 75.274979,123.06573 C 76.102069,125.13137 76.43337,125.25764 77.898824,124.06573 C 79.363985,122.87407 79.493129,122.92286 78.920208,124.45159 C 78.456354,125.68929 78.76747,126.21049 79.982977,126.232 C 81.588227,126.2604 81.586157,126.32964 79.951592,127.28169 C 77.883524,128.48623 77.739441,129.76109 79.451592,131.70576 C 81.014833,133.4813 82.180571,133.58296 82.270492,131.95159 z M 65.201592,130.20159 C 65.201592,129.65159 64.526592,129.20159 63.701592,129.20159 C 62.876592,129.20159 62.201592,129.65159 62.201592,130.20159 C 62.201592,130.75159 62.876592,131.20159 63.701592,131.20159 C 64.526592,131.20159 65.201592,130.75159 65.201592,130.20159 z M 64.389092,126.51848 C 63.667217,126.22961 62.804717,126.26513 62.472425,126.59742 C 62.140134,126.92972 62.730759,127.16606 63.784925,127.12264 C 64.949868,127.07466 65.186825,126.8377 64.389092,126.51848 z M 65.201592,124.20159 C 65.201592,123.65159 64.275034,123.20159 63.142575,123.20159 C 62.010116,123.20159 61.361673,123.65159 61.701592,124.20159 C 62.504023,125.49995 65.201592,125.49995 65.201592,124.20159 z M 65.201592,112.20159 C 65.201592,111.65159 64.189092,111.23322 62.951592,111.27188 C 60.804691,111.33894 60.793236,111.38154 62.701592,112.20159 C 63.801592,112.67428 64.814092,113.09265 64.951592,113.1313 C 65.089092,113.16996 65.201592,112.75159 65.201592,112.20159 z M 68.559829,110.45159 C 68.844259,108.93909 69.362395,105.11409 69.71124,101.95159 C 70.277082,96.82189 70.148956,96.202398 68.523548,96.209061 C 66.916388,96.21565 66.683903,97.217743 66.551548,104.70906 C 66.40627,112.93184 67.503436,116.0691 68.559829,110.45159 z M 76.281426,111.16086 C 81.448075,108.52503 83.086299,105.20077 80.878863,101.8318 C 79.494552,99.719073 72.629858,96.343182 71.769285,97.351927 C 71.605218,97.544243 71.166603,101.18909 70.794586,105.45159 C 70.036432,114.13836 70.170861,114.27824 76.281426,111.16086 z M 59.201592,103.70159 C 59.201592,96.960851 59.006354,96.201592 57.273021,96.201592 C 54.56014,96.201592 52.388361,98.689108 51.645893,102.6468 C 50.539071,108.54667 52.038955,110.7268 57.451592,111.08559 C 58.973014,111.18644 59.201592,110.22197 59.201592,103.70159 z M 63.93256,108.5086 C 62.959593,108.25506 61.609593,108.27173 60.93256,108.54565 C 60.255528,108.81958 61.051592,109.02702 62.701592,109.00664 C 64.351592,108.98626 64.905528,108.76214 63.93256,108.5086 z M 65.201592,105.20159 C 65.201592,104.65159 64.076592,104.20159 62.701592,104.20159 C 61.326592,104.20159 60.201592,104.65159 60.201592,105.20159 C 60.201592,105.75159 61.326592,106.20159 62.701592,106.20159 C 64.076592,106.20159 65.201592,105.75159 65.201592,105.20159 z M 65.201592,101.20159 C 65.201592,99.653427 64.580319,99.232358 62.451592,99.337774 C 60.093747,99.454536 60.022446,99.535755 61.951592,99.907325 C 64.848843,100.46536 64.848843,101.93782 61.951592,102.49586 C 60.022446,102.86743 60.093747,102.94865 62.451592,103.06541 C 64.580319,103.17082 65.201592,102.74976 65.201592,101.20159 z M 63.93256,96.508601 C 62.959593,96.255058 61.609593,96.271732 60.93256,96.545655 C 60.255528,96.819578 61.051592,97.027023 62.701592,97.006643 C 64.351592,96.986264 64.905528,96.762145 63.93256,96.508601 z M 85.70365,90.562429 C 87.03234,90.052563 87.099457,89.752223 86.035438,89.077741 C 85.171079,88.529825 86.109513,88.19904 88.701592,88.137957 C 90.901592,88.086114 92.139092,87.816724 91.451592,87.539311 C 89.185474,86.624913 90.149486,85.201592 93.034925,85.201592 C 96.713399,85.201592 97.60483,84.229154 95.436048,82.582272 C 93.865427,81.389608 93.958389,81.262195 96.420207,81.233395 C 98.202325,81.212547 98.970518,80.762997 98.65024,79.928366 C 98.362394,79.178251 99.452783,78.167796 101.30419,77.468966 C 103.42758,76.667478 104.26304,75.804115 103.88034,74.806799 C 103.56882,73.995004 103.77799,73.176125 104.34516,72.98707 C 104.95272,72.784547 106.29779,68.686948 106.28322,63.458291 L 105.01638,55.308339 L 101.60693,51.297948 C 99.25142,49.020705 97.730705,48.160081 97.460946,48.951592 C 97.226635,49.639092 96.397425,50.201592 95.618259,50.201592 C 93.870491,50.201592 93.728064,46.539497 95.451592,45.91623 C 96.139092,45.667614 94.543304,45.125902 91.905397,44.712425 C 85.868604,43.766193 84.996759,44.536026 89.62038,46.730079 C 94.439491,49.016897 94.140667,50.342148 88.951592,49.696074 C 85.521885,49.269053 85.918921,49.508035 91.008664,50.934257 C 96.608604,52.503443 97.561602,53.150062 99.508664,56.701592 C 100.71477,58.901592 101.92659,60.926592 102.20159,61.201592 C 103.2649,62.264901 102.84181,66.70423 101.55447,67.991567 C 100.81039,68.735652 100.20159,70.212306 100.20159,71.273021 C 100.20159,72.333735 99.703447,73.201592 99.094603,73.201592 C 98.485759,73.201592 98.246636,73.876592 98.563218,74.701592 C 98.899196,75.577135 98.578405,76.201592 97.792652,76.201592 C 95.717358,76.201592 93.798158,78.878719 95.409854,79.525399 C 96.12031,79.810463 95.464092,80.079224 93.951592,80.122645 C 92.208902,80.172674 91.201592,80.751034 91.201592,81.701592 C 91.201592,82.526592 90.864092,83.148303 90.451592,83.083171 C 87.816336,82.667078 86.046941,83.356194 86.528485,84.611079 C 86.940945,85.685933 85.601212,86.201649 80.885474,86.783297 L 74.701592,87.546028 L 78.951592,88.432659 C 81.289092,88.920306 83.201592,89.742808 83.201592,90.260441 C 83.201592,91.373276 83.497533,91.408995 85.70365,90.562429 z M 71.201592,84.326592 C 71.201592,82.745342 71.482842,80.045342 71.826592,78.326592 C 72.399608,75.461513 72.233259,75.201592 69.826592,75.201592 C 67.284925,75.201592 67.201592,75.392068 67.201592,81.201592 C 67.201592,86.534925 67.423814,87.201592 69.201592,87.201592 C 70.737824,87.201592 71.201592,86.534925 71.201592,84.326592 z M 65.201592,83.701592 C 65.201592,82.701592 64.201592,82.201592 62.201592,82.201592 C 60.201592,82.201592 59.201592,82.701592 59.201592,83.701592 C 59.201592,84.701592 60.201592,85.201592 62.201592,85.201592 C 64.201592,85.201592 65.201592,84.701592 65.201592,83.701592 z M 65.201592,80.201592 C 65.201592,79.651592 63.825034,79.201592 62.142575,79.201592 C 60.357874,79.201592 59.341017,79.618169 59.701592,80.201592 C 60.506289,81.503619 65.201592,81.503619 65.201592,80.201592 z M 65.201592,76.201592 C 65.201592,75.651592 63.851592,75.201592 62.201592,75.201592 C 60.551592,75.201592 59.201592,75.651592 59.201592,76.201592 C 59.201592,76.751592 60.551592,77.201592 62.201592,77.201592 C 63.851592,77.201592 65.201592,76.751592 65.201592,76.201592 z M 73.701592,69.201592 C 72.895594,67.89746 57.50759,67.89746 56.701592,69.201592 C 56.306829,69.840331 59.377547,70.201592 65.201592,70.201592 C 71.025637,70.201592 74.096355,69.840331 73.701592,69.201592 z M 74.201592,61.701592 C 74.201592,57.225402 74.183073,57.201592 70.701592,57.201592 C 67.220111,57.201592 67.201592,57.225402 67.201592,61.701592 C 67.201592,66.177782 67.220111,66.201592 70.701592,66.201592 C 74.183073,66.201592 74.201592,66.177782 74.201592,61.701592 z M 74.701592,50.201592 C 73.885186,48.880619 56.201592,48.880619 56.201592,50.201592 C 56.201592,50.798516 60.054598,51.201592 65.760609,51.201592 C 71.878643,51.201592 75.097151,50.84162 74.701592,50.201592 z M 71.093255,44.143319 C 72.408669,43.047865 73.25814,41.924807 72.980969,41.647635 C 72.703797,41.370464 68.949689,40.88923 64.638507,40.578228 C 57.34494,40.05208 56.897971,40.130824 58.209302,41.710882 C 59.249257,42.963951 60.612293,43.275715 63.410102,42.900451 C 65.495421,42.620751 67.201592,42.799085 67.201592,43.296749 C 67.201592,43.794412 66.55315,44.201592 65.760609,44.201592 C 64.968068,44.201592 64.041511,44.651592 63.701592,45.201592 C 62.561531,47.04625 68.65502,46.173838 71.093255,44.143319 z M 74.201592,33.201592 C 74.201592,32.651592 73.463701,32.201592 72.561835,32.201592 C 71.123921,32.201592 68.32201,29.607624 68.233395,28.194386 C 68.215904,27.915423 70.226592,27.848235 72.701592,28.04508 C 75.526144,28.269726 77.201592,27.993167 77.201592,27.302286 C 77.201592,26.696904 78.806176,26.201592 80.767333,26.201592 C 82.728491,26.201592 85.141328,25.769028 86.129193,25.240339 C 87.389444,24.565873 88.488633,24.705558 89.813452,25.708535 C 90.851929,26.494733 92.826592,27.134683 94.201592,27.130647 C 96.562901,27.123715 96.527954,27.047744 93.57164,25.761201 C 91.850166,25.012041 90.136109,23.904655 89.762623,23.300342 C 88.838313,21.804777 89.306987,21.89476 94.342388,24.17963 C 98.815525,26.209366 103.20159,26.817851 103.20159,25.408678 C 103.20159,24.972575 100.66805,23.754587 97.571508,22.702039 C 90.866614,20.422975 92.096208,19.378438 98.947134,21.533447 C 106.038,23.763933 109.01615,24.057677 110.86117,22.708565 C 112.23838,21.701522 111.28143,21.40449 105.27535,20.974757 C 100.47466,20.631269 97.47819,19.906762 96.400316,18.828888 C 94.40552,16.834092 95.488771,16.794771 100.70159,18.672756 C 105.04741,20.238392 115.76866,20.711108 116.59532,19.373535 C 116.8768,18.918103 113.82952,18.035925 109.82361,17.41314 C 102.11619,16.214894 96.565091,14.50476 97.464269,13.605582 C 97.761298,13.308552 100.38038,13.771143 103.28446,14.63356 C 110.29475,16.715394 121.7749,16.755906 122.56322,14.701592 C 123.05227,13.427126 121.5648,13.201592 112.67021,13.201592 C 106.91247,13.201592 102.2023,12.864092 102.20317,12.451592 C 102.20404,12.039092 106.81654,11.701592 112.45317,11.701592 C 124.7228,11.701592 128.20159,10.924242 128.20159,8.1825395 C 128.20159,5.7996198 128.37406,5.8137565 123.60625,7.8058722 C 121.15052,8.8319433 115.42994,9.5985565 107.73413,9.9328912 C 95.575039,10.461127 89.317333,12.11893 84.951592,15.968481 C 82.647083,18.000513 82.587161,23.201592 84.868259,23.201592 C 85.784925,23.201592 86.241264,23.495253 85.882345,23.854172 C 85.523426,24.213092 83.831675,24.467002 82.122898,24.418418 C 78.795309,24.323807 76.95506,22.614242 74.642367,17.469113 C 73.018048,13.855436 70.140178,12.76513 63.065487,13.083109 C 61.059029,13.173292 59.387046,14.632285 56.065487,19.191395 C 52.782079,23.698141 51.082601,25.191251 49.201591,25.221803 C 46.973431,25.257994 46.897571,25.376429 48.503951,26.310992 C 49.809331,27.070444 50.726491,27.010856 51.830166,26.094885 C 53.064842,25.070195 53.513192,25.087737 54.192774,26.187324 C 54.654087,26.933744 56.643465,27.579808 58.613615,27.623022 C 60.583765,27.666235 62.182719,27.926592 62.166845,28.201592 C 62.07608,29.774099 59.183431,32.201592 57.400366,32.201592 C 56.255959,32.201592 55.041511,32.651592 54.701592,33.201592 C 54.305215,33.842944 57.691208,34.201592 64.142575,34.201592 C 70.18192,34.201592 74.201592,33.801983 74.201592,33.201592 z M 45.317381,24.466873 C 48.003701,23.512777 50.201591,22.328393 50.201591,21.834907 C 50.201591,19.750492 45.937151,14.293656 42.455951,11.923482 C 37.386551,8.4719759 32.229571,7.2251961 22.701591,7.1475575 C 18.301591,7.1117041 12.549641,6.7283424 9.9194805,6.2956424 C 6.7564105,5.7752723 5.2533205,5.8567704 5.4798505,6.5363598 C 6.1661005,8.5951225 12.915961,10.051168 22.118261,10.125514 C 27.297421,10.167356 31.316101,10.420415 31.048651,10.687867 C 30.119121,11.617392 16.316921,12.016982 12.770131,11.217051 C 10.807431,10.77439 9.2015905,10.721491 9.2015905,11.099498 C 9.2015905,12.027922 17.786471,14.273908 19.409291,13.770048 C 20.120061,13.549367 24.076591,13.127635 28.201591,12.832866 C 37.258801,12.185645 34.638901,13.674299 24.881821,14.719194 C 17.872431,15.469836 16.314951,16.629348 20.951591,17.645164 C 23.571991,18.219253 31.718651,17.106016 35.451591,15.663749 C 36.414091,15.291875 37.201591,15.432338 37.201591,15.975888 C 37.201591,17.022485 29.769361,19.201592 26.199751,19.201592 C 24.920251,19.201592 24.351321,19.634848 24.760811,20.297406 C 25.397781,21.328049 29.874471,21.076487 37.451591,19.584262 C 39.087681,19.262053 40.201591,19.479924 40.201591,20.122137 C 40.201591,20.715837 38.514091,21.208483 36.451591,21.216905 C 32.420071,21.233367 29.287021,22.620355 30.512691,23.846027 C 31.196011,24.529347 37.042741,23.362187 41.451591,21.662334 C 42.420611,21.288724 43.201591,21.446175 43.201591,22.015148 C 43.201591,22.580291 41.856751,23.338058 40.213061,23.699073 C 38.569371,24.060089 36.967811,24.770844 36.654041,25.278529 C 35.744261,26.750587 40.013641,26.350595 45.317381,24.466873 z M 79.504454,45.679715 C 79.504454,45.330183 81.182082,45.336472 81.307926,44.819383 C 81.490797,44.067969 80.814969,42.222608 80.975881,42.570166 C 82.175502,45.161269 84.532639,45.730165 84.93587,47.333018 C 84.38587,47.333018 82.144447,45.877176 79.504454,45.679715 z "
     id="path2161"
     sodipodi:nodetypes="csssssscccsssssssssssssssssssssssssssssssssssssssssssssssssssssssssssssssssscccssssssssssssssssssssssssscssssssscccsssscsccscccscccssssssssssssscccscccscccssssssssssccccccccccsscccssscccssssssssssscccsssssccssssccsssssssssscccssssssssssssssccssccssssssccsssccssccssccssssccssssssssssssssssssssssssssssssssssssssssssssssscccssssssssssccsssccssccssccsssccsssccsssccsssccssccsssccssssccssccsssssssssscccssssssssssssssssssscccsccssssccsssccssccsssccssccsssccssccsssssssccsssssssssssssssssssssssssssssssssssssssssssssccsssssssssssssssssssssssssccsscc" />
</svg>
